PathFileType	4	(X/Y/Z)	C:/Users/beibeiliu/ov580/test_trc\sequence.3_training_dense_left.trc
DataRate	CameraRate	NumFrames	NumMarkers	Units	OrigDataRate	OrigDataStartFrame	OrigNumFrames
120	120	8	19	mm	120	37	72
Frame#	Time	ThumbCMC			ThumbMCP			ThumbIP			ThumbTip			IndexMCP			IndexPIP			IndexTip			MiddleMCP			MiddlePIP			MiddleTip			RingMCP			RingPIP			RingTip			PinkyMCP			PinkyPIP			PinkyTip			BackHand1			BackHand2			BackHand3	
		X0	Y0	Z0	X1	Y1	Z1	X2	Y2	Z2	X3	Y3	Z3	X4	Y4	Z4	X5	Y5	Z5	X6	Y6	Z6	X7	Y7	Z7	X8	Y8	Z8	X9	Y9	Z9	X10	Y10	Z10	X11	Y11	Z11	X12	Y12	Z12	X13	Y13	Z13	X14	Y14	Z14	X15	Y15	Z15	X16	Y16	Z16	X17	Y17	Z17	X18	Y18	Z18	
36	0.3	-186.081	8.78473	111.889	-169.65	5.17633	89.7738	-153.948	8.22832	72.8607	-134.48	12.155	57.018	-189.513	18.5105	35.207	-187.025	-9.03093	24.839	-195.33	-19.8871	56.353	-208.203	14.6986	28.6521	-202.538	-16.3533	25.4422	-209.206	-22.8193	61.9903	-227.879	8.95859	30.3919	-220.434	-20.5592	31.1059	-216.342	-19.3361	68.2756	-241.914	2.73957	34.5197	-231.217	-21.5937	40.2866	-228.186	-18.82	73.0302	-242.827	34.0997	79.7779	-244.507	30.6807	108.815	-213.552	32.91	99.4076	
37	0.308333	-191.136	7.4421	108.096	-172.215	4.19995	87.9606	-156.32	5.89362	73.0855	-137.201	9.79631	59.2802	-193.696	11.0606	31.8737	-192.199	-17.6038	31.1857	-197.347	-18.6116	63.7822	-215.742	9.5837	30.792	-211.051	-22.4212	31.9262	-215.54	-20.5384	67.7406	-233.92	2.63251	31.4766	-222.644	-26.548	41.7078	-226.232	-16.2799	75.8458	-250.762	0.18362	38.164	-239.613	-27.0524	48.5985	-231.915	-17.6145	76.8017	-242.971	31.7057	81.6261	-251.758	27.3312	109.629	-213.673	32.1273	97.6764	
38	0.316667	-194.213	7.24786	108.24	-171.118	1.07833	91.694	-153.655	4.5324	73.4458	-141.529	5.08052	59.0306	-194.358	10.7203	35.6255	-190.037	-21.2569	34.338	-201.024	-18.7484	66.1896	-212.002	5.83349	31.6532	-211.813	-26.7672	36.786	-216.054	-18.0981	73.9484	-230.639	-2.3406	32.5396	-225.162	-29.7164	44.9158	-225.921	-17.5396	76.6144	-248.126	-6.15411	39.8325	-241.104	-29.9795	54.2485	-237.08	-11.7239	84.8712	-247.436	28.8958	79.2365	-247.472	26.7211	109.03	-214.842	32.1322	98.1575	
39	0.325	-192.495	4.51833	108.475	-174.072	-3.9179	92.4276	-151.449	-1.74085	71.7217	-133.449	-0.433768	56.7008	-192.155	1.31439	32.7029	-191.209	-25.7709	33.4536	-197.94	-21.3674	68.9741	-214.1	-2.29497	29.462	-212.106	-31.6874	40.7531	-215.937	-23.2044	73.2245	-228.436	-5.30597	33.9019	-225.82	-32.6771	48.6234	-227.122	-16.6274	80.013	-246.58	-10.7887	39.8218	-239.238	-31.4325	58.076	-236.028	-11.1365	83.9579	-240.737	30.3347	78.3958	-247.001	25.8965	107.959	-211.077	28.5715	99.4064	
40	0.333333	-181.511	-3.39312	111.221	-165.965	-12.0198	94.0178	-145.051	-12.24	77.2895	-127.239	-13.6428	64.6154	-187.115	-8.0366	34.7465	-187.527	-35.9402	40.1516	-197.003	-28.4888	70.9015	-207.579	-10.2585	32.8825	-208.089	-39.386	42.6027	-206.626	-27.4091	77.4857	-225.972	-13.7183	35.639	-222.209	-40.1814	51.052	-220.023	-20.3117	81.4499	-240.57	-13.064	42.8274	-237.561	-37.3977	60.5475	-229.762	-18.832	86.6666	-237.275	24.5099	75.5482	-239.888	22.292	109.446	-207.324	23.4551	99.5004	
41	0.341667	-179.703	-3.66576	114.51	-165.524	-14.9229	99.9077	-139.954	-13.4426	80.0135	-125.569	-12.9868	65.7316	-180.9	-13.1427	41.0885	-180.896	-42.4554	43.8749	-192.402	-32.6923	74.6311	-203.201	-20.2584	35.5006	-200.446	-47.9402	49.412	-206.836	-30.6285	82.1095	-222.491	-24.1519	39.1459	-213.688	-47.5436	57.448	-213.737	-26.7771	84.3743	-238.686	-28.0689	45.4723	-229.518	-45.8868	67.8705	-228.167	-21.3381	92.403	-234.501	15.6092	77.4502	-236.636	15.4101	109.658	-204.808	18.209	101.673	
42	0.35	-189.21	11.6319	109.198	-167.582	10.1141	97.2937	-152.501	12.82	73.6445	-137.564	17.0868	61.3221	-181.89	-4.64351	40.9019	-172.521	-32.8874	52.0298	-185.641	-18.4433	80.3393	-200.109	-22.9377	38.1981	-190.092	-44.7639	56.8214	-197.437	-20.9302	86.384	-217.274	-32.3852	44.633	-204.681	-49.0214	68.8757	-210.518	-23.5553	89.2805	-231.187	-40.727	52.0019	-215.248	-48.7077	76.2085	-220.863	-23.5455	95.8083	-244.8	6.29137	77.0307	-249.018	8.66788	107.859	-219.876	21.9699	96.8509	
43	0.358333	-210.087	34.5863	106.876	-192.723	38.1324	89.8211	-180.237	48.8341	71.0433	-167.74	59.8934	51.3004	-193.457	7.29236	38.8187	-168.201	-3.94858	50.1579	-185.004	-0.409221	80.5936	-202.524	-12.1723	41.4976	-176.68	-20.4972	62.1092	-196.907	-7.29608	87.632	-204.608	-28.0927	49.1556	-187.79	-32.4979	71.9237	-209.816	-14.0769	94.3048	-213.524	-38.3408	58.1119	-198.776	-37.7708	82.68	-214.913	-18.1698	100.645	-251.694	-4.65492	74.095	-261.252	-3.25714	107.011	-239.939	25.1614	93.4106	
